HIERARCHY
ROOT root
{
	OFFSET	0	13.1	24.9
	CHANNELS 6  Xposition Yposition Zposition Xrotation Yrotation Zrotation
	JOINT spine_1
	{
		OFFSET	0	9.99999	0
		CHANNELS 3  Xrotation Yrotation Zrotation
		JOINT spine_2
		{
			OFFSET	0	112	-10
			CHANNELS 3  Xrotation Yrotation Zrotation
			JOINT spine_3
			{
				OFFSET	0	206.5	19.3
				CHANNELS 3  Xrotation Yrotation Zrotation
				JOINT spine_4
				{
					OFFSET	0	110.4	14.6
					CHANNELS 3  Xrotation Yrotation Zrotation
					JOINT neck_1
					{
						OFFSET	0	71.8	-50.3
						CHANNELS 3  Xrotation Yrotation Zrotation
						JOINT neck_2
						{
							OFFSET	0	86.2	-25.8
							CHANNELS 3  Xrotation Yrotation Zrotation
							JOINT head_ee
							{
								OFFSET	0	179.8	-8.7
								CHANNELS 3  Xrotation Yrotation Zrotation
								End Site
								{
									OFFSET	1	0	0
								}
							}
						}
					}
					JOINT left_clavicle
					{
						OFFSET	-43.2	22.4	-70.8
						CHANNELS 3  Xrotation Yrotation Zrotation
						JOINT left_shoulder
						{
							OFFSET	-93.9	-5.79999	48.7
							CHANNELS 3  Xrotation Yrotation Zrotation
							JOINT left_elbow
							{
								OFFSET	-291.4	-30.8	15.2
								CHANNELS 3  Xrotation Yrotation Zrotation
								JOINT left_lowarm_twist
								{
									OFFSET	-110.7	-3.89999	13.6
									CHANNELS 3  Xrotation Yrotation Zrotation
									JOINT left_hand
									{
										OFFSET	-110.7	-3.89999	13.6
										CHANNELS 3  Xrotation Yrotation Zrotation
										JOINT left_ee
										{
											OFFSET	-80.8	-5.10001	12.1
											CHANNELS 3  Xrotation Yrotation Zrotation
											End Site
											{
												OFFSET	1	0	0
											}
										}
									}
								}
							}
						}
					}
					JOINT right_clavicle
					{
						OFFSET	43.2	22.4	-70.8
						CHANNELS 3  Xrotation Yrotation Zrotation
						JOINT right_shoulder
						{
							OFFSET	93.9	-5.79999	48.7
							CHANNELS 3  Xrotation Yrotation Zrotation
							JOINT right_elbow
							{
								OFFSET	291.4	-30.8	15.2
								CHANNELS 3  Xrotation Yrotation Zrotation
								JOINT right_lowarm_twist
								{
									OFFSET	110.7	-3.89999	13.6
									CHANNELS 3  Xrotation Yrotation Zrotation
									JOINT right_hand
									{
										OFFSET	110.7	-3.89999	13.6
										CHANNELS 3  Xrotation Yrotation Zrotation
										JOINT right_ee
										{
											OFFSET	80.8	-5.10001	12.1
											CHANNELS 3  Xrotation Yrotation Zrotation
											End Site
											{
												OFFSET	1	0	0
											}
										}
									}
								}
							}
						}
					}
				}
			}
		}
	}
	JOINT left_hip
	{
		OFFSET	-82.8	-127.5	0.300001
		CHANNELS 3  Xrotation Yrotation Zrotation
		JOINT left_knee
		{
			OFFSET	-28.2	-396.7	2.2
			CHANNELS 3  Xrotation Yrotation Zrotation
			JOINT left_ankle
			{
				OFFSET	-11.7	-411.3	35.4
				CHANNELS 3  Xrotation Yrotation Zrotation
				JOINT left_toes
				{
					OFFSET	0	-60	-88.6
					CHANNELS 3  Xrotation Yrotation Zrotation
					JOINT left_foot_ee
					{
						OFFSET	-22.5	-16.5	-42.2
						CHANNELS 3  Xrotation Yrotation Zrotation
						End Site
						{
							OFFSET	1	0	0
						}
					}
				}
			}
		}
	}
	JOINT right_hip
	{
		OFFSET	82.8	-127.5	0.300001
		CHANNELS 3  Xrotation Yrotation Zrotation
		JOINT right_knee
		{
			OFFSET	28.2	-396.7	2.2
			CHANNELS 3  Xrotation Yrotation Zrotation
			JOINT right_ankle
			{
				OFFSET	11.7	-411.3	35.4
				CHANNELS 3  Xrotation Yrotation Zrotation
				JOINT right_toes
				{
					OFFSET	0	-60	-88.6
					CHANNELS 3  Xrotation Yrotation Zrotation
					JOINT right_foot_ee
					{
						OFFSET	22.5	-16.5	-42.2
						CHANNELS 3  Xrotation Yrotation Zrotation
						End Site
						{
							OFFSET	1	0	0
						}
					}
				}
			}
		}
	}
}
MOTION
Frames: 7
Frame Time: 0.02
1404.93 686.541 -963.372 -171.852 -40.0547 175.099 0.884488 0.824883 4.3277 0.894738 0.548098 4.3713 0.939736 -0.310919 4.3945 0.913004 0.386327 4.38853 4.94291 17.0799 -4.57714 6.68392 33.3194 -4.89892 -0.0 0.0 -0.0 3.1121 22.1056 6.96046 -21.5521 -25.8151 69.9446 0.631891 -17.3813 0.0965883 -65.7039 -5.99943 5.24306 -1.19815 10.7845 -3.18203 -0.0 0.0 -0.0 12.1829 26.8486 -23.6997 -16.3438 -5.04104 -84.3656 1.09095 28.3872 -0.275932 38.7404 0.285373 4.84758 -4.13232 -13.3671 20.9313 0.0 0.0 0.0 25.4002 49.1452 4.31636 1.02917 -0.0437462 -0.15187 23.6293 24.1816 -3.32149 32.3048 -0.0 -0.0 -0.0 0.0 -0.0 2.91964 1.70171 20.7109 -18.921 -0.306918 -2.87418 13.9911 27.6603 2.39898 32.9481 -0.0 -0.0 0.0 0.0 0.0 
1422.29 684.57 -963.666 -170.672 -39.2332 176.91 0.768285 0.889512 4.30304 0.778374 0.614162 4.3508 0.828603 -0.250456 4.38672 0.802034 0.44481 4.37132 3.5435 17.5561 -0.403935 4.67544 30.9171 0.375967 -0.0 0.0 -0.0 3.51347 21.8908 7.52939 -16.1827 -24.7535 67.3119 0.634142 -17.4395 0.097262 -65.3687 -5.95697 5.23671 -2.00273 17.0088 -5.30431 -0.0 0.0 -0.0 12.5135 27.02 -24.4352 -15.4155 -8.74815 -83.5932 1.13466 29.3384 -0.297029 35.9909 0.157324 4.52021 -4.05091 -12.8683 20.6862 0.0 0.0 0.0 26.784 48.5228 3.87193 2.13289 -0.0936898 -0.313858 27.6048 26.5787 -3.86267 31.956 -0.0 -0.0 -0.0 0.0 -0.0 5.07066 5.27705 19.852 -24.3509 -0.218676 -3.70241 11.2515 23.9658 1.87227 30.0087 -0.0 -0.0 0.0 0.0 0.0 
1443.52 684.516 -955.732 -171.466 -38.762 176.564 0.693861 1.01116 4.26535 0.703677 0.737961 4.3209 0.763276 -0.127833 4.38149 0.73694 0.565079 4.34684 5.5913 17.2418 -0.15681 6.79735 29.6611 0.246011 -0.0 0.0 -0.0 4.07588 21.5517 8.3374 -18.0566 -24.773 64.1672 0.723922 -19.7283 0.12588 -65.4311 -5.96487 5.23791 -1.9588 17.0415 -5.0195 -0.0 0.0 -0.0 11.8694 27.1456 -22.9498 -14.216 -7.21794 -84.3692 1.13041 29.2468 -0.294953 36.9649 0.200885 4.63688 -3.95743 -12.7406 20.1308 0.0 0.0 0.0 26.466 49.1152 3.13275 0.583223 -0.0244551 -0.0861578 31.3231 26.6436 -4.30256 33.7668 -0.0 -0.0 -0.0 0.0 -0.0 5.74975 8.88584 19.1788 -29.5263 -0.0619195 -4.48093 12.865 20.3026 2.04903 31.2921 -0.0 -0.0 0.0 0.0 0.0 
1456.99 692.576 -949.067 -171.262 -39.0208 177.21 0.776769 0.975504 4.22643 0.786428 0.704842 4.2798 0.842677 -0.146269 4.33488 0.816868 0.539533 4.30372 2.98048 17.3481 0.571969 3.94743 29.8623 1.61606 -0.0 0.0 -0.0 4.31301 17.6571 8.70682 -19.1149 -25.085 63.7265 0.703243 -19.2066 0.118988 -66.4238 -6.09072 5.25585 -2.56727 20.2222 -7.09409 -0.0 0.0 -0.0 12.7094 26.9814 -24.8893 -12.9377 -10.9661 -82.2718 1.13802 29.4109 -0.29868 36.3655 0.173843 4.56517 -4.07677 -12.6264 21.0101 0.0 0.0 0.0 25.3514 47.6454 3.60601 1.78806 -0.0777501 -0.26335 30.2854 27.5648 -4.20843 34.295 -0.0 -0.0 -0.0 0.0 -0.0 9.52868 14.0137 17.2458 -38.4258 0.369668 -5.77665 16.2439 16.7586 2.47112 31.8033 -0.0 -0.0 0.0 0.0 0.0 
1487.27 697.813 -934.419 -174.27 -41.5133 174.735 -0.121037 0.904797 4.49998 -0.109987 0.616922 4.5483 -0.0543117 -0.357229 4.57596 -0.0833311 0.369166 4.57502 3.72602 17.6977 2.23751 4.64775 28.8734 3.38615 -0.0 0.0 -0.0 4.81553 14.2713 9.52393 -20.1214 -24.5908 62.2488 0.735789 -20.0262 0.129915 -67.9615 -6.28617 5.27931 -3.06434 21.9868 -9.09239 -0.0 0.0 -0.0 12.9168 25.9947 -25.4856 -11.6573 -12.1416 -78.8587 1.32135 33.2054 -0.393995 36.1795 0.165604 4.54286 -4.09268 -12.6911 21.0788 0.0 0.0 0.0 19.9075 46.3452 5.79597 0.385454 -0.0160641 -0.0569693 33.6807 27.2346 -4.58567 36.3873 -0.0 -0.0 -0.0 0.0 -0.0 15.5512 25.4815 13.3627 -58.5089 2.04115 -8.35912 24.5436 15.1365 3.52971 33.2173 -0.0 -0.0 0.0 0.0 0.0 
1516.67 697.616 -930.618 -174.807 -42.9271 174.133 -0.00448433 0.911026 4.52972 0.00671237 0.621252 4.57837 0.0627708 -0.349912 4.607 0.0333671 0.381277 4.60451 4.83379 17.5732 1.14254 5.90165 29.3031 1.91764 -0.0 0.0 -0.0 5.16864 13.5946 10.1157 -19.4677 -24.7938 60.5862 0.748241 -20.3375 0.134211 -68.462 -6.34991 5.2858 -3.29683 24.0336 -9.28919 -0.0 0.0 -0.0 12.3032 25.2441 -24.1586 -11.7048 -13.0465 -77.3939 1.33329 33.4421 -0.400557 36.7511 0.191149 4.61132 -4.0592 -12.9587 20.6871 0.0 0.0 0.0 18.1662 44.953 7.0012 -0.716682 0.0288462 0.1062 37.0308 26.6475 -4.92575 37.1453 -0.0 -0.0 -0.0 0.0 -0.0 18.1958 28.8889 12.3971 -64.1096 2.6597 -8.96209 25.9015 16.2296 3.72386 33.9106 -0.0 -0.0 0.0 0.0 0.0 
1531.2 701.635 -923.708 -175.088 -42.614 173.818 0.0676666 0.951877 4.49831 0.0786753 0.664013 4.54961 0.137594 -0.295929 4.5882 0.108488 0.431627 4.57745 3.3918 17.9566 2.04427 4.34168 29.5831 3.22912 -0.0 0.0 -0.0 5.06204 12.5303 9.94571 -18.0455 -25.0851 59.3397 0.791098 -21.3995 0.149478 -68.3389 -6.33423 5.28426 -3.31135 25.0498 -8.78489 -0.0 0.0 -0.0 12.4511 23.711 -24.6579 -12.1407 -12.8455 -76.6486 1.33859 33.5465 -0.403479 36.2851 0.170271 4.55552 -3.9994 -12.254 20.7101 0.0 0.0 0.0 16.8694 44.4204 7.45192 -0.967459 0.0386251 0.143443 38.7146 24.3442 -5.02244 37.4304 -0.0 -0.0 -0.0 0.0 -0.0 19.7445 32.4926 9.80303 -66.9477 2.99503 -9.24406 24.9096 14.4479 3.55789 34.035 -0.0 -0.0 0.0 0.0 0.0 
